<svg id="Layer_1" data-name="Layer 1" xmlns="http://www.w3.org/2000/svg" viewBox="0 0 151.03 134.76"><defs><style>.cls-1{fill:#1775c1;}.cls-2{fill:#f64;}.cls-3{fill:#ffaf3f;}</style></defs><polygon class="cls-1" points="18.79 28.62 40.77 15.16 62.01 59.11 18.79 28.62"/><polygon class="cls-2" points="8.76 119.45 0 88.78 60.84 74.26 8.76 119.45"/><polygon class="cls-1" points="138.48 47.46 151.03 74.26 84 62.74 138.48 47.46"/><polygon class="cls-3" points="67.79 0 95.88 1.05 69.83 44.68 67.79 0"/><polygon class="cls-3" points="109 129.59 85.11 134.76 76.58 77.1 109 129.59"/><polygon class="cls-2" points="122.6 16.77 121.63 33.21 97.32 37.13 122.6 16.77"/><polygon class="cls-1" points="60.84 120.28 56.54 106.63 67.22 85.3 60.84 120.28"/><polygon class="cls-2" points="97.32 78.09 105.68 101.83 75.33 61.8 97.32 78.09"/><polygon class="cls-3" points="19.66 50.49 12.87 68.82 50.48 65.65 19.66 50.49"/></svg>