<svg id="Layer_1" data-name="Layer 1" xmlns="http://www.w3.org/2000/svg" viewBox="0 0 289.89 134.76"><defs><style>.cls-1{opacity:0.4;}.cls-2{fill:#1775c1;}.cls-3{fill:#f64;}.cls-4{fill:#ffaf3f;}</style></defs><g class="cls-1"><polygon class="cls-2" points="93.65 28.62 115.64 15.16 136.88 59.11 93.65 28.62"/><polygon class="cls-3" points="83.62 119.45 74.86 88.78 135.7 74.26 83.62 119.45"/><polygon class="cls-2" points="213.34 47.46 225.89 74.26 158.86 62.74 213.34 47.46"/><polygon class="cls-4" points="142.65 0 170.74 1.05 144.7 44.68 142.65 0"/><polygon class="cls-4" points="183.87 129.59 159.97 134.76 151.44 77.1 183.87 129.59"/><polygon class="cls-3" points="197.46 16.77 196.5 33.21 172.18 37.13 197.46 16.77"/><polygon class="cls-2" points="135.7 120.28 131.41 106.63 142.08 85.3 135.7 120.28"/><polygon class="cls-3" points="172.18 78.09 180.54 101.83 150.19 61.8 172.18 78.09"/><polygon class="cls-4" points="94.53 50.49 87.74 68.82 125.35 65.65 94.53 50.49"/></g><path d="M25.29,71.42H11.07l-2.2,5.76H3.11l11.79-30h6.57l11.79,30H27.5ZM12.56,66.78H23.81L18.18,51.62Z"/><path d="M47,66H41.81V77.18H36.54v-30H49.73c5.94,0,9.81,3.87,9.81,9.41,0,5.35-3.51,8.23-7.11,8.82l7.33,11.79H53.69ZM49,51.8h-7.2v9.54H49c3,0,5.13-1.89,5.13-4.77S52,51.8,49,51.8Z"/><path d="M71.51,51.8H62.42V47.16H85.86V51.8H76.77V77.18H71.51Z"/><path d="M90.32,47.16h20.56V51.8H95.58v7.78h15v4.64h-15v8.32h15.3v4.64H90.32Z"/><path d="M117.27,68.9A13,13,0,0,0,126.76,73c4.33,0,6-2.12,6-4.1,0-2.7-3.19-3.51-6.83-4.45-4.91-1.22-10.67-2.66-10.67-9,0-5,4.37-8.78,10.94-8.78a15.61,15.61,0,0,1,11.24,4.19l-3,3.91a12.21,12.21,0,0,0-8.69-3.42c-3.1,0-5.08,1.49-5.08,3.74s3.06,3.1,6.61,4c5,1.26,10.85,2.79,10.85,9.32,0,5-3.51,9.27-11.61,9.27-5.54,0-9.54-1.94-12.19-4.77Z"/><path d="M161.59,71.42H147.38l-2.21,5.76h-5.76l11.79-30h6.57l11.79,30H163.8Zm-12.73-4.64h11.25l-5.63-15.16Z"/><path d="M178.11,55.31V77.18h-5.27v-30h5.4l15.35,21.29V47.16h5.26v30h-5.08Z"/><path d="M224.28,71.42H210.06l-2.21,5.76h-5.76l11.79-30h6.57l11.79,30h-5.76Zm-12.74-4.64h11.25l-5.62-15.16Z"/><path d="M239.76,51.8h-9.09V47.16h23.44V51.8H245V77.18h-5.26Z"/><path d="M271.44,46.67c9,0,15.34,6.57,15.34,15.52s-6.34,15.53-15.34,15.53-15.35-6.57-15.35-15.53S262.44,46.67,271.44,46.67Zm0,4.68c-6.08,0-9.95,4.63-9.95,10.84S265.36,73,271.44,73s9.94-4.68,9.94-10.85S277.47,51.35,271.44,51.35Z"/><path d="M81.31,18.53l-.46,3.8h4.49l-.18,1.43H80.67L80,29.08H78.37l1.47-11.94h6.91l-.16,1.39Z"/><path d="M94.48,23.89a4.94,4.94,0,0,1-.2,1.36h-6a2.32,2.32,0,0,0,2.43,2.59,3,3,0,0,0,2.42-1.12l.84.89a4.47,4.47,0,0,1-3.57,1.57,3.51,3.51,0,0,1-3.75-3.78,4.68,4.68,0,0,1,4.64-5A3.13,3.13,0,0,1,94.48,23.89Zm-6.1.22h4.51c0-.11,0-.21,0-.31a1.8,1.8,0,0,0-1.82-2A2.88,2.88,0,0,0,88.38,24.11Z"/><path d="M97.5,27.4c0,.27.09.36.29.36a2.32,2.32,0,0,0,.31,0L98,29.08a3.4,3.4,0,0,1-1,.11c-1,0-1.34-.54-1.23-1.36l.91-7.29,1.61-.05Zm.27-8.56a.94.94,0,0,1-1-1A1.23,1.23,0,0,1,98,16.69a1,1,0,0,1,1,1A1.24,1.24,0,0,1,97.77,18.84Z"/><path d="M105.57,20.58l-.6,1.61a1.33,1.33,0,0,0-.76-.2c-.88,0-2,.81-2.22,2.5l-.56,4.59h-1.6l1-8.54,1.14-.05a11.61,11.61,0,0,1,0,2h0a2.79,2.79,0,0,1,2.47-2.05A4,4,0,0,1,105.57,20.58Z"/><path d="M113.6,27.11c0,.47.06.65.44.65l.29,0-.07,1.34a4.59,4.59,0,0,1-.89.1c-.89,0-1.45-.41-1.32-1.41l0-.31h0A3.57,3.57,0,0,1,109,29.19c-2,0-3.36-1.5-3.36-3.78,0-2.93,1.9-5,4.52-5a2.59,2.59,0,0,1,2.71,2.05h0a10.5,10.5,0,0,1,.44-1.94h1.14l-.82,6.57Zm-4.19.74a3.16,3.16,0,0,0,2.86-2.78l.06-.48a2.32,2.32,0,0,0-2.25-2.82c-1.65,0-2.85,1.45-2.85,3.49,0,1.56.82,2.59,2.18,2.59Z"/><path d="M129.13,29.08h-1.77l-3.5-7.49c-.36-.76-.86-2-.94-2.21l-.11.06a14.39,14.39,0,0,1-.14,2.13l-.89,7.51h-1.64l1.46-11.94h1.81l3.49,7.56c.55,1.2.78,1.89.89,2.17l.11-.05c0-.25,0-1.14.16-2.15l.89-7.53h1.65Z"/><path d="M139.75,27.11c-.05.47.06.65.44.65l.29,0-.08,1.34a4.42,4.42,0,0,1-.88.1c-.89,0-1.45-.41-1.32-1.41l0-.31h0a3.54,3.54,0,0,1-3.11,1.74c-2,0-3.36-1.5-3.36-3.78,0-2.93,1.9-5,4.52-5A2.59,2.59,0,0,1,139,22.48h0a10.5,10.5,0,0,1,.44-1.94h1.14l-.82,6.57Zm-1.33-2,.06-.48a2.32,2.32,0,0,0-2.26-2.82c-1.64,0-2.84,1.45-2.84,3.49,0,1.56.82,2.59,2.17,2.59A3.16,3.16,0,0,0,138.42,25.07Z"/><path d="M149.89,23.06a2.54,2.54,0,0,1-.15.87l-1.48.1a2.21,2.21,0,0,0,.11-.67,1.53,1.53,0,0,0-1.69-1.59c-1.66,0-2.89,1.45-2.89,3.53a2.24,2.24,0,0,0,2.3,2.55,3.25,3.25,0,0,0,2.6-1.14l.8,1a4.71,4.71,0,0,1-3.62,1.46,3.5,3.5,0,0,1-3.73-3.76,4.74,4.74,0,0,1,4.69-5C148.75,20.43,149.89,21.57,149.89,23.06Z"/><path d="M152.87,27.4c0,.27.09.36.29.36a2,2,0,0,0,.31,0l-.09,1.35a3.37,3.37,0,0,1-.94.11c-1,0-1.34-.54-1.23-1.36l.9-7.29,1.61-.05Zm.27-8.56a.94.94,0,0,1-1-1,1.23,1.23,0,0,1,1.23-1.19,1,1,0,0,1,1,1A1.24,1.24,0,0,1,153.14,18.84Z"/><path d="M163.66,24.29a4.66,4.66,0,0,1-4.78,4.9,3.5,3.5,0,0,1-3.69-3.78,4.74,4.74,0,0,1,4.77-5A3.57,3.57,0,0,1,163.66,24.29Zm-1.63.12c0-1.53-.83-2.64-2.23-2.64-1.72,0-3,1.54-3,3.51,0,1.52.84,2.57,2.21,2.57C160.78,27.85,162,26.41,162,24.41Z"/><path d="M173.34,27.73l-.07,1.35a3.78,3.78,0,0,1-1,.11A1.22,1.22,0,0,1,171,27.65l.45-3.8c.15-1.25-.38-2.08-1.57-2.08-1.6,0-2.53,1.55-2.72,2.76l-.56,4.55H165l1-8.54,1.14-.05a11.61,11.61,0,0,1,0,2h0a3.55,3.55,0,0,1,3.13-2.05c1.95,0,3,1.38,2.71,3.42l-.41,3.42a.39.39,0,0,0,.41.49A1.94,1.94,0,0,0,173.34,27.73Z"/><path d="M183,27.11c-.05.47.06.65.44.65l.29,0-.07,1.34a4.59,4.59,0,0,1-.89.1c-.89,0-1.45-.41-1.32-1.41l0-.31h0a3.57,3.57,0,0,1-3.12,1.74c-2,0-3.36-1.5-3.36-3.78,0-2.93,1.9-5,4.52-5a2.59,2.59,0,0,1,2.71,2.05h0a10.5,10.5,0,0,1,.44-1.94h1.14L183,27.11Zm-4.19.74a3.16,3.16,0,0,0,2.86-2.78l.06-.48a2.32,2.32,0,0,0-2.25-2.82c-1.65,0-2.85,1.45-2.85,3.49,0,1.56.82,2.59,2.18,2.59Z"/><path d="M187,16.31h1.6L187,29.08h-1.59Z"/><path d="M201.67,27.76a2.16,2.16,0,0,0,.29,0l-.07,1.34a4.42,4.42,0,0,1-.88.1c-.89,0-1.45-.41-1.33-1.41l0-.32h0a3.59,3.59,0,0,1-3.11,1.75c-2,0-3.35-1.5-3.35-3.76,0-3,1.94-5,4.53-5a2.68,2.68,0,0,1,2.56,1.44l.68-5.56h1.57l-1.32,10.8C201.19,27.58,201.29,27.76,201.67,27.76Zm-4.63.09A3.18,3.18,0,0,0,199.92,25l.05-.4a2.31,2.31,0,0,0-2.26-2.81c-1.65,0-2.84,1.45-2.84,3.49,0,1.56.81,2.59,2.17,2.59Z"/><path d="M211.52,23.89a4.94,4.94,0,0,1-.2,1.36h-6a2.31,2.31,0,0,0,2.42,2.59,3.07,3.07,0,0,0,2.43-1.12l.83.89a4.47,4.47,0,0,1-3.57,1.57,3.5,3.5,0,0,1-3.74-3.78,4.68,4.68,0,0,1,4.63-5A3.13,3.13,0,0,1,211.52,23.89Zm-6.1.22h4.51c0-.11,0-.21,0-.31a1.8,1.8,0,0,0-1.82-2A2.88,2.88,0,0,0,205.42,24.11Z"/><path d="M53.13,96.34h2.94l4.44,11.71c.69,1.81,1.35,3.6,2.05,5.53h0c.7-1.9,1.39-3.75,2.11-5.62l4.47-11.62H72l-8,20.87h-2.8Z"/><path d="M75.7,96.34a1.82,1.82,0,1,1-1.82,1.82A1.81,1.81,0,0,1,75.7,96.34ZM74.4,103H77v14.18H74.4Z"/><path d="M81.54,95.19h2.6v22h-2.6Z"/><path d="M89.24,116.52a3.78,3.78,0,0,1-1.5-3.14,3.94,3.94,0,0,1,1.87-3.46,7.44,7.44,0,0,1,4-1,12.45,12.45,0,0,1,3,.37v-1.18a3,3,0,0,0-.81-2.33,3.84,3.84,0,0,0-2.62-.78,7.35,7.35,0,0,0-4.35,1.41v-2.53a8.83,8.83,0,0,1,4.72-1.22A6.19,6.19,0,0,1,97.8,104a4.77,4.77,0,0,1,1.41,3.72v6c0,.87.32,1.5,1.1,1.5a1.88,1.88,0,0,0,.83-.2v2.16a3.53,3.53,0,0,1-1.38.26A3,3,0,0,1,97,116H97a6.71,6.71,0,0,1-4.35,1.56A5.66,5.66,0,0,1,89.24,116.52ZM96.62,114v-2.65a10.77,10.77,0,0,0-2.77-.37c-1.76,0-3.49.52-3.49,2.19,0,1.38,1.19,2.07,2.71,2.07A5.87,5.87,0,0,0,96.62,114Z"/><path d="M117.6,102.71a8.18,8.18,0,0,1,3.4.75l.06,0V95.19h2.59v22h-2.59v-.86l-.06,0a7,7,0,0,1-10.93-6A7.32,7.32,0,0,1,117.6,102.71Zm-.23,12.51a6.58,6.58,0,0,0,3.69-1.21v-8.1a7.93,7.93,0,0,0-3.49-.89c-3,0-4.87,2.28-4.87,5.19S114.46,115.22,117.37,115.22Z"/><path d="M134.71,102.71a7.41,7.41,0,1,1-7.49,7.41A7.3,7.3,0,0,1,134.71,102.71Zm0,12.46a5,5,0,1,0-4.9-5A4.86,4.86,0,0,0,134.71,115.17Z"/><path d="M162.52,96a12.11,12.11,0,0,1,5.88,1.47v3a10.13,10.13,0,0,0-5.9-1.93,8.22,8.22,0,0,0,.23,16.43,9.39,9.39,0,0,0,6-2.1v3a11.81,11.81,0,0,1-6.14,1.61c-6.34,0-10.92-4.58-10.92-10.69A10.52,10.52,0,0,1,162.52,96Z"/><path d="M178.89,102.71a7.41,7.41,0,1,1-7.49,7.41A7.3,7.3,0,0,1,178.89,102.71Zm0,12.46a5,5,0,1,0-4.9-5A4.86,4.86,0,0,0,178.89,115.17Z"/><path d="M190,103h2.59v1.79l.06,0a7,7,0,0,1,5-2.14,4.9,4.9,0,0,1,3.77,1.56c.78.89,1.18,2,1.18,4.18v8.76h-2.59v-8.27a4.4,4.4,0,0,0-.66-2.88,3,3,0,0,0-2.28-.92,6,6,0,0,0-4.44,2.36v9.71H190Z"/><path d="M213.62,102.71a8.18,8.18,0,0,1,3.4.75l.06,0V95.19h2.59v22h-2.59v-.86l-.06,0a7,7,0,0,1-10.93-6A7.32,7.32,0,0,1,213.62,102.71Zm-.23,12.51a6.58,6.58,0,0,0,3.69-1.21v-8.1a7.9,7.9,0,0,0-3.49-.89c-3,0-4.87,2.28-4.87,5.19S210.48,115.22,213.39,115.22Z"/><path d="M225.83,110.87c.38,2.8,2.45,4.33,5.25,4.33a8.09,8.09,0,0,0,4.9-1.76v2.76a10,10,0,0,1-5.07,1.33c-4.38,0-7.67-2.94-7.67-7.41a7.07,7.07,0,0,1,7.06-7.41c3.46,0,6.46,2.43,6.46,6.87a8.42,8.42,0,0,1-.09,1.29Zm.06-2h8.36a3.84,3.84,0,0,0-4-3.78A4.33,4.33,0,0,0,225.89,108.83Z"/><rect class="cls-3" x="193.26" y="85.44" width="96.63" height="2.5"/><rect class="cls-2" y="85.44" width="96.63" height="2.5"/><rect class="cls-4" x="96.63" y="85.44" width="96.63" height="2.5"/><rect class="cls-3" x="193.26" y="36.44" width="96.63" height="2.5"/><rect class="cls-2" y="36.44" width="96.63" height="2.5"/><rect class="cls-4" x="96.63" y="36.44" width="96.63" height="2.5"/></svg>